<svg xmlns="http://www.w3.org/2000/svg" width="40" height="40" viewBox="0 0 16 16" enable-background="new 0 0 16 16"><g fill="#686868"><path d="M8.5 1C4.358 1 1 4.358 1 8.5 1 12.643 4.358 16 8.5 16c4.143 0 7.5-3.357 7.5-7.5C16 4.358 12.643 1 8.5 1zm0 14C4.916 15 2 12.084 2 8.5S4.916 2 8.5 2 15 4.916 15 8.5 12.084 15 8.5 15zM11.268 5.025L8.52 7.775l-2.466-2.75c-.195-.195-.512-.195-.707 0-.195.195-.195.512 0 .707l2.466 2.75-2.787 2.786c-.195.195-.195.512 0 .707.195.195.512.195.707 0l2.75-2.748 2.465 2.748c.194.195.512.195.706 0 .195-.195.195-.512 0-.707L9.188 8.52l2.787-2.788c.195-.195.195-.512 0-.707-.196-.195-.512-.195-.707 0z"/></g></svg>