<?xml version="1.0" encoding="utf-8"?>
<!-- Generator: Adobe Illustrator 15.0.0, SVG Export Plug-In . SVG Version: 6.00 Build 0)  -->
<!DOCTYPE svg PUBLIC "-//W3C//DTD SVG 1.1//EN" "http://www.w3.org/Graphics/SVG/1.1/DTD/svg11.dtd">
<svg version="1.1" id="Layer_1" xmlns="http://www.w3.org/2000/svg" xmlns:xlink="http://www.w3.org/1999/xlink" x="0px" y="0px"
	 width="26px" height="26px" viewBox="0 0 26 26" enable-background="new 0 0 26 26" xml:space="preserve" fill="green">
<g>
	<path d="M18.767,6.132H7.234c-0.66,0-1.198,0.537-1.198,1.198v11.531c0,0.66,0.538,1.199,1.198,1.199h11.533
		c0.659,0,1.197-0.539,1.197-1.199V7.33C19.964,6.669,19.426,6.132,18.767,6.132z M18.938,18.861c0,0.096-0.077,0.172-0.171,0.172
		H7.234c-0.094,0-0.171-0.076-0.171-0.172V7.33c0-0.094,0.077-0.171,0.171-0.171h11.533c0.094,0,0.171,0.077,0.171,0.171V18.861z"/>
	<path d="M16.734,9.912c-0.142-0.141-0.371-0.141-0.513,0l-4.254,4.254L9.776,11.96c-0.142-0.142-0.37-0.142-0.512,0l-0.768,0.767
		c-0.141,0.141-0.141,0.371,0,0.512l3.212,3.233c0.14,0.141,0.369,0.141,0.511,0l5.281-5.281c0.143-0.141,0.143-0.372,0-0.513
		L16.734,9.912z"/>
</g>
</svg>
