<svg xmlns="http://www.w3.org/2000/svg" width="26" height="26" viewBox="0 0 26 26" fill="#008000"><path d="M18.767 6.132H7.234c-.66 0-1.198.537-1.198 1.198v11.53c0 .66.538 1.2 1.198 1.2h11.533c.66 0 1.197-.54 1.197-1.2V7.33c0-.66-.538-1.198-1.197-1.198zm.17 12.73c0 .095-.076.17-.17.17H7.234c-.094 0-.17-.075-.17-.17V7.33c0-.094.076-.17.17-.17h11.533c.094 0 .17.076.17.17v11.53zM16.734 9.912c-.142-.14-.37-.14-.513 0l-4.253 4.254-2.19-2.206c-.143-.142-.37-.142-.513 0l-.768.767c-.14.14-.14.37 0 .512l3.212 3.232c.14.14.37.14.51 0l5.282-5.28c.143-.142.143-.373 0-.514l-.766-.766z"/></svg>