<svg xmlns="http://www.w3.org/2000/svg" width="13" height="12.172" viewBox="0 0 13 12.172" fill="#555"><path d="M7.747 2.756L7 3.42v.048c.618.675 1 1.6 1 2.618 0 1.02-.382 1.943-1 2.618v.05l.747.662C8.523 8.552 9 7.38 9 6.086s-.477-2.466-1.253-3.33zM0 4.086v4h2l3 3v-10l-3 3zM9.32 1.357l-.748.664C9.466 3.136 10 4.55 10 6.087s-.534 2.952-1.427 4.064l.747.664C10.37 9.524 11 7.88 11 6.086c0-1.793-.63-3.44-1.68-4.73zM10.848 0l-.752.668C11.286 2.146 12 4.03 12 6.086s-.714 3.94-1.904 5.418l.752.668C12.19 10.516 13 8.396 13 6.086c0-2.31-.81-4.43-2.152-6.086z"/></svg>